<svg id="Layer_1" data-name="Layer 1" xmlns="http://www.w3.org/2000/svg" viewBox="0 0 33.32306 33.32271">
  <defs>
    <style>
      .cls-1 {
        fill: #1d262d;
      }
    </style>
  </defs>
  <g>
    <g>
      <path class="cls-1" d="M16.66115,25.80589a.33779.33779,0,0,1-.338-.33766V8.66958a.338.338,0,0,1,.67607,0V25.46823A.33779.33779,0,0,1,16.66115,25.80589Z"/>
      <path class="cls-1" d="M16.61918,13.60781a.33773.33773,0,0,1-.2391-.09894l-2.23732-2.237a.33787.33787,0,0,1,.4782-.47744l2.23732,2.23694a.33767.33767,0,0,1-.2391.57639Z"/>
      <path class="cls-1" d="M16.66115,22.85128a5.40892,5.40892,0,0,1-5.40255-5.40255c0-4.36447,4.95059-9.47508,5.16121-9.69057l.2361-.24134.24134.2361c.21062.20612,5.16721,5.10424,5.16721,9.69581A5.40908,5.40908,0,0,1,16.66115,22.85128ZM16.66565,8.483c-.98787,1.07856-4.731,5.39881-4.731,8.96578a4.72686,4.72686,0,1,0,9.45372,0C21.38839,13.69775,17.66027,9.52816,16.66565,8.483Z"/>
      <path class="cls-1" d="M16.66115,17.23774a.33771.33771,0,0,1-.23909-.09894l-3.62994-3.62993a.33787.33787,0,0,1,.4782-.47745l3.62993,3.62994a.33766.33766,0,0,1-.2391.57638Z"/>
      <path class="cls-1" d="M16.78782,21.2473a.33772.33772,0,0,1-.23909-.09893l-4.8539-4.8539A.33787.33787,0,0,1,12.173,15.817l4.8539,4.8539a.33766.33766,0,0,1-.2391.57638Z"/>
      <path class="cls-1" d="M16.7496,13.62242a.338.338,0,0,1-.2406-.57488L18.73133,10.796a.33788.33788,0,0,1,.4812.47444L16.99019,13.522A.338.338,0,0,1,16.7496,13.62242Z"/>
      <path class="cls-1" d="M16.73086,17.25235a.338.338,0,0,1-.2406-.57488l3.606-3.65317a.33788.33788,0,0,1,.48119.47445l-3.60594,3.65317A.338.338,0,0,1,16.73086,17.25235Z"/>
      <path class="cls-1" d="M16.62967,21.263a.338.338,0,0,1-.24059-.57488l4.82242-4.88538a.33788.33788,0,0,1,.48119.47445l-4.82242,4.88538A.338.338,0,0,1,16.62967,21.263Z"/>
    </g>
    <path class="cls-1" d="M16.66156,0a16.66136,16.66136,0,1,0,16.6615,16.66162h-.87775A15.78333,15.78333,0,1,1,27.82257,5.50079a15.73267,15.73267,0,0,1,4.62274,11.16083h.87775A16.66149,16.66149,0,0,0,16.66156,0"/>
  </g>
</svg>
